<svg width="60" height="60" viewBox="0 0 60 60" fill="none" xmlns="http://www.w3.org/2000/svg">
<g clip-path="url(#clip0_420_838)">
<mask id="mask0_420_838" style="mask-type:luminance" maskUnits="userSpaceOnUse" x="0" y="8" width="60" height="44">
<path d="M55.7143 8.57129H4.28571C1.91878 8.57129 0 10.4901 0 12.857V47.1427C0 49.5097 1.91878 51.4284 4.28571 51.4284H55.7143C58.0812 51.4284 60 49.5097 60 47.1427V12.857C60 10.4901 58.0812 8.57129 55.7143 8.57129Z" fill="white"/>
</mask>
<g mask="url(#mask0_420_838)">
<path d="M60.0001 8.57129H0V51.4284H60.0001V8.57129Z" fill="url(#paint0_linear_420_838)"/>
<path fill-rule="evenodd" clip-rule="evenodd" d="M0 8.57129H60.0001V11.4284H0V8.57129ZM0 14.2856H60.0001V17.1427H0V14.2856ZM0 19.9999H60.0001V22.857H0V19.9999ZM0 25.7141H60.0001V28.5713H0V25.7141ZM0 31.4285H60.0001V34.2856H0V31.4285ZM0 37.1426H60.0001V39.9999H0V37.1426ZM0 42.857H60.0001V45.7141H0V42.857ZM0 48.5714H60.0001V51.4284H0V48.5714Z" fill="url(#paint1_linear_420_838)"/>
<path d="M25.7144 8.57129H0V28.5713H25.7144V8.57129Z" fill="url(#paint2_linear_420_838)"/>
<path fill-rule="evenodd" clip-rule="evenodd" d="M4.286 14.2854C3.49702 14.2854 2.85742 13.6458 2.85742 12.8568C2.85742 12.0678 3.49702 11.4282 4.286 11.4282C5.07498 11.4282 5.71458 12.0678 5.71458 12.8568C5.71458 13.6458 5.07498 14.2854 4.286 14.2854ZM10.0003 14.2854C9.21131 14.2854 8.57171 13.6458 8.57171 12.8568C8.57171 12.0678 9.21131 11.4282 10.0003 11.4282C10.7893 11.4282 11.4289 12.0678 11.4289 12.8568C11.4289 13.6458 10.7893 14.2854 10.0003 14.2854ZM15.7146 14.2854C14.9256 14.2854 14.286 13.6458 14.286 12.8568C14.286 12.0678 14.9256 11.4282 15.7146 11.4282C16.5035 11.4282 17.1431 12.0678 17.1431 12.8568C17.1431 13.6458 16.5035 14.2854 15.7146 14.2854ZM21.4289 14.2854C20.6399 14.2854 20.0003 13.6458 20.0003 12.8568C20.0003 12.0678 20.6399 11.4282 21.4289 11.4282C22.2178 11.4282 22.8575 12.0678 22.8575 12.8568C22.8575 13.6458 22.2178 14.2854 21.4289 14.2854ZM7.14314 17.1425C6.35416 17.1425 5.71458 16.5029 5.71458 15.7139C5.71458 14.925 6.35416 14.2854 7.14314 14.2854C7.93211 14.2854 8.57171 14.925 8.57171 15.7139C8.57171 16.5029 7.93211 17.1425 7.14314 17.1425ZM12.8574 17.1425C12.0684 17.1425 11.4289 16.5029 11.4289 15.7139C11.4289 14.925 12.0684 14.2854 12.8574 14.2854C13.6464 14.2854 14.286 14.925 14.286 15.7139C14.286 16.5029 13.6464 17.1425 12.8574 17.1425ZM18.5717 17.1425C17.7827 17.1425 17.1431 16.5029 17.1431 15.7139C17.1431 14.925 17.7827 14.2854 18.5717 14.2854C19.3607 14.2854 20.0003 14.925 20.0003 15.7139C20.0003 16.5029 19.3607 17.1425 18.5717 17.1425ZM21.4289 19.9997C20.6399 19.9997 20.0003 19.3601 20.0003 18.5711C20.0003 17.7821 20.6399 17.1425 21.4289 17.1425C22.2178 17.1425 22.8575 17.7821 22.8575 18.5711C22.8575 19.3601 22.2178 19.9997 21.4289 19.9997ZM15.7146 19.9997C14.9256 19.9997 14.286 19.3601 14.286 18.5711C14.286 17.7821 14.9256 17.1425 15.7146 17.1425C16.5035 17.1425 17.1431 17.7821 17.1431 18.5711C17.1431 19.3601 16.5035 19.9997 15.7146 19.9997ZM10.0003 19.9997C9.21131 19.9997 8.57171 19.3601 8.57171 18.5711C8.57171 17.7821 9.21131 17.1425 10.0003 17.1425C10.7893 17.1425 11.4289 17.7821 11.4289 18.5711C11.4289 19.3601 10.7893 19.9997 10.0003 19.9997ZM4.286 19.9997C3.49702 19.9997 2.85742 19.3601 2.85742 18.5711C2.85742 17.7821 3.49702 17.1425 4.286 17.1425C5.07498 17.1425 5.71458 17.7821 5.71458 18.5711C5.71458 19.3601 5.07498 19.9997 4.286 19.9997ZM7.14314 22.8568C6.35416 22.8568 5.71458 22.2172 5.71458 21.4282C5.71458 20.6392 6.35416 19.9997 7.14314 19.9997C7.93211 19.9997 8.57171 20.6392 8.57171 21.4282C8.57171 22.2172 7.93211 22.8568 7.14314 22.8568ZM12.8574 22.8568C12.0684 22.8568 11.4289 22.2172 11.4289 21.4282C11.4289 20.6392 12.0684 19.9997 12.8574 19.9997C13.6464 19.9997 14.286 20.6392 14.286 21.4282C14.286 22.2172 13.6464 22.8568 12.8574 22.8568ZM18.5717 22.8568C17.7827 22.8568 17.1431 22.2172 17.1431 21.4282C17.1431 20.6392 17.7827 19.9997 18.5717 19.9997C19.3607 19.9997 20.0003 20.6392 20.0003 21.4282C20.0003 22.2172 19.3607 22.8568 18.5717 22.8568ZM21.4289 25.7139C20.6399 25.7139 20.0003 25.0743 20.0003 24.2854C20.0003 23.4964 20.6399 22.8568 21.4289 22.8568C22.2178 22.8568 22.8575 23.4964 22.8575 24.2854C22.8575 25.0743 22.2178 25.7139 21.4289 25.7139ZM15.7146 25.7139C14.9256 25.7139 14.286 25.0743 14.286 24.2854C14.286 23.4964 14.9256 22.8568 15.7146 22.8568C16.5035 22.8568 17.1431 23.4964 17.1431 24.2854C17.1431 25.0743 16.5035 25.7139 15.7146 25.7139ZM10.0003 25.7139C9.21131 25.7139 8.57171 25.0743 8.57171 24.2854C8.57171 23.4964 9.21131 22.8568 10.0003 22.8568C10.7893 22.8568 11.4289 23.4964 11.4289 24.2854C11.4289 25.0743 10.7893 25.7139 10.0003 25.7139ZM4.286 25.7139C3.49702 25.7139 2.85742 25.0743 2.85742 24.2854C2.85742 23.4964 3.49702 22.8568 4.286 22.8568C5.07498 22.8568 5.71458 23.4964 5.71458 24.2854C5.71458 25.0743 5.07498 25.7139 4.286 25.7139Z" fill="url(#paint3_linear_420_838)"/>
</g>
</g>
<defs>
<linearGradient id="paint0_linear_420_838" x1="30.0001" y1="8.57129" x2="30.0001" y2="51.4284" gradientUnits="userSpaceOnUse">
<stop stop-color="white"/>
<stop offset="1" stop-color="#F0F0F0"/>
</linearGradient>
<linearGradient id="paint1_linear_420_838" x1="30.0001" y1="8.57129" x2="30.0001" y2="51.4284" gradientUnits="userSpaceOnUse">
<stop stop-color="#D02F44"/>
<stop offset="1" stop-color="#B12537"/>
</linearGradient>
<linearGradient id="paint2_linear_420_838" x1="12.8571" y1="8.57129" x2="12.8571" y2="28.5713" gradientUnits="userSpaceOnUse">
<stop stop-color="#46467F"/>
<stop offset="1" stop-color="#3C3C6D"/>
</linearGradient>
<linearGradient id="paint3_linear_420_838" x1="12.8574" y1="11.4282" x2="12.8574" y2="25.7139" gradientUnits="userSpaceOnUse">
<stop stop-color="white"/>
<stop offset="1" stop-color="#F0F0F0"/>
</linearGradient>
<clipPath id="clip0_420_838">
<rect width="60" height="60" fill="white"/>
</clipPath>
</defs>
</svg>
